<?xml version="1.0" standalone="no"?><!DOCTYPE svg PUBLIC "-//W3C//DTD SVG 1.1//EN" "http://www.w3.org/Graphics/SVG/1.1/DTD/svg11.dtd"><svg class="icon" height="512" viewBox="0 0 1024 1024" version="1.1" xmlns="http://www.w3.org/2000/svg"><path d="M512.01875 0C229.228125 0 0.009375 229.234375 0.009375 511.99375c0 282.778125 229.21875 512.009375 512.009375 512.009375 282.759375 0 511.98125-229.23125 511.98125-512.009375C1023.996875 229.234375 794.778125 0 512.01875 0zM246.771875 363.1625c2.65625-22.946875 23.771875-40.8 49.465625-40.8l0-0.034375 431.484375 0c25.58125 0 46.71875 17.79375 49.490625 40.65 0.20625 1.659375 0.275 3.378125 0.275 5.09375l-265.51875 157.503125-265.496875-157.503125C246.475 366.378125 246.565625 364.7875 246.771875 363.1625zM777.534375 655.921875c0 25.259375-22.30625 45.74375-49.8125 45.74375L296.259375 701.665625c-27.503125 0-49.7875-20.484375-49.7875-45.74375l0-247.23125 265.51875 157.503125 265.540625-157.503125L777.53125 655.921875z" /></svg>