<?xml version="1.0" standalone="no"?><!DOCTYPE svg PUBLIC "-//W3C//DTD SVG 1.1//EN" "http://www.w3.org/Graphics/SVG/1.1/DTD/svg11.dtd"><svg class="icon" height="512" viewBox="0 0 1024 1024" version="1.1" xmlns="http://www.w3.org/2000/svg"><path d="M511.999996 0.008186c-282.767132 0-511.995907 229.228775-511.995907 511.995907s229.228775 511.995907 511.995907 511.995907 511.995907-229.228775 511.995907-511.995907S794.767128 0.008186 511.999996 0.008186zM732.70463 358.831528l0 51.246151 0 40.134069 0 214.96491-0.152473 0c0.016373 0.512676 0.152473 0.986467 0.152473 1.499144 0 38.202067-29.054733 69.099774-65.428152 70.799486l0 0.353041-1.266853 0L357.989343 737.828328l-1.266853 0 0-0.353041c-36.374442-1.707898-65.428152-32.597419-65.428152-70.799486 0-0.512676 0.1361-0.99363 0.152473-1.499144l-0.152473 0L291.294338 450.211748l0-40.134069 0-51.246151 0.152473 0c-0.016373-0.512676-0.152473-0.986467-0.152473-1.499144 0-38.202067 29.054733-69.099774 65.428152-70.799486l0-0.353041 1.266853 0 308.020282 0 1.266853 0 0 0.353041c36.374442 1.707898 65.428152 32.597419 65.428152 70.799486 0 0.512676-0.1361 0.986467-0.152473 1.499144L732.70463 358.831528zM511.999996 597.752036c45.954635 0 83.201957-38.691207 83.201957-86.433558s-37.247322-86.441744-83.201957-86.441744c-45.946448 0-83.201957 38.691207-83.201957 86.433558C428.798039 559.052642 466.045361 597.752036 511.999996 597.752036zM624.657822 408.898831l47.108924 0c7.447623 0 13.485129-6.277984 13.485129-14.014178l0-48.944735c0-7.744381-6.036483-14.014178-13.485129-14.014178l-47.108924 0c-7.447623 0-13.485129 6.277984-13.485129 14.014178l0 48.944735C611.172693 402.629034 617.209176 408.898831 624.657822 408.898831zM640.219239 511.318478c0 73.573669-57.403385 133.214001-128.219243 133.214001s-128.219243-59.640332-128.219243-133.214001c0-9.331529 0.930185-18.439978 2.686179-27.234271l-48.752354 0 0 194.977693c0 7.744381 6.036483 14.014178 13.485129 14.014178l321.601602 0c7.447623 0 13.485129-6.277984 13.485129-14.014178L686.286438 484.084207l-48.752354 0C639.289054 492.8785 640.219239 501.985926 640.219239 511.318478z" /></svg>