<?xml version="1.0" standalone="no"?><!DOCTYPE svg PUBLIC "-//W3C//DTD SVG 1.1//EN" "http://www.w3.org/Graphics/SVG/1.1/DTD/svg11.dtd"><svg class="icon" height="512" viewBox="0 0 1024 1024" version="1.1" xmlns="http://www.w3.org/2000/svg"><path d="M512 0c-282.760533 0-512 229.239467-512 512s229.239467 512 512 512 512-229.239467 512-512S794.760533 0 512 0zM758.237867 416.085333c0.238933 4.949333 0.341333 9.9328 0.341333 14.9504 0 152.8832-116.360533 329.147733-329.147733 329.147733-65.3312 0-126.122667-19.1488-177.322667-51.985067 9.045333 1.092267 18.261333 1.6384 27.613867 1.6384 54.203733 0 104.072533-18.500267 143.6672-49.527467-50.619733-0.9216-93.354667-34.372267-108.066133-80.349867 7.0656 1.365333 14.301867 2.082133 21.777067 2.082133 10.5472 0 20.7872-1.4336 30.481067-4.061867-52.9408-10.615467-92.808533-57.378133-92.808533-113.425067 0-0.477867 0-0.989867 0-1.467733 15.598933 8.669867 33.416533 13.858133 52.394667 14.472533-31.0272-20.753067-51.473067-56.149333-51.473067-96.290133 0-21.1968 5.700267-41.0624 15.6672-58.1632 57.0368 70.007467 142.301867 116.053333 238.455467 120.866133-1.979733-8.465067-3.003733-17.3056-3.003733-26.385067 0-63.8976 51.8144-115.677867 115.677867-115.677867 33.28 0 63.351467 14.062933 84.445867 36.522667 26.350933-5.188267 51.131733-14.813867 73.454933-28.0576-8.635733 26.999467-26.965333 49.664-50.858667 64 23.415467-2.798933 45.704533-9.0112 66.4576-18.2272C800.4608 379.392 780.834133 399.7696 758.237867 416.085333z" /></svg>